<svg version="1.1" id="Layer_1" xmlns="http://www.w3.org/2000/svg" xmlns:xlink="http://www.w3.org/1999/xlink" x="0px" y="0px"
	 width="100%" viewBox="0 0 582 598" enable-background="new 0 0 582 598" xml:space="preserve">
<path fill="#FEFEFE" opacity="1.000000" stroke="none" 
	d="
M309.000000,599.000000 
	C206.000000,599.000000 103.500000,599.000000 1.000000,599.000000 
	C1.000000,399.666656 1.000000,200.333328 1.000000,1.000000 
	C195.000000,1.000000 389.000000,1.000000 583.000000,1.000000 
	C583.000000,200.333328 583.000000,399.666656 583.000000,599.000000 
	C491.833344,599.000000 400.666656,599.000000 309.000000,599.000000 
M172.703674,278.738312 
	C173.023743,278.058655 173.343796,277.379028 174.183258,276.276306 
	C176.348770,272.491333 178.514282,268.706390 180.995865,264.594360 
	C180.995865,264.594360 181.082062,264.147797 181.672043,263.892822 
	C182.050156,262.923492 182.428268,261.954163 183.192291,260.428162 
	C184.128128,258.951874 185.063980,257.475586 186.620255,256.020264 
	C186.981384,255.323593 187.342514,254.626938 188.044434,253.669312 
	C188.044434,253.669312 188.142090,253.251343 188.716095,253.040558 
	C189.060608,252.340454 189.405106,251.640350 190.234528,250.496338 
	C191.174774,249.031891 192.115005,247.567459 193.618164,245.923355 
	C193.955872,245.254578 194.293579,244.585800 195.114746,243.501099 
	C195.803604,242.438766 196.492477,241.376434 197.776505,240.080643 
	C198.418472,239.029755 199.060455,237.978867 200.156616,236.560623 
	C200.452682,236.068573 200.748764,235.576508 201.606689,234.899567 
	C201.960968,234.240936 202.315247,233.582306 203.024429,232.681213 
	C203.024429,232.681213 203.152878,232.271042 203.746490,232.068375 
	C204.142471,231.368759 204.538452,230.669144 205.446091,229.659439 
	C205.998322,228.834839 206.550537,228.010254 207.705200,226.989594 
	C208.373077,225.969040 209.040955,224.948471 210.220398,223.568451 
	C210.823898,222.732086 211.427399,221.895721 212.602341,220.886719 
	C212.988052,220.237793 213.373779,219.588867 214.294708,218.580643 
	C215.206497,217.406311 216.118271,216.231995 217.632584,214.884964 
	C218.332474,213.900787 219.032364,212.916595 220.233841,211.578674 
	C220.855087,210.778366 221.476334,209.978043 222.718430,209.003036 
	C223.461533,207.993683 224.204636,206.984329 225.532715,205.655731 
	C228.046936,202.817245 230.561157,199.978760 233.730331,196.976105 
	C238.175201,192.328598 242.620071,187.681107 247.652557,182.726761 
	C250.742065,179.757446 253.831573,176.788116 257.566986,173.719910 
	C259.105682,172.179932 260.644348,170.639938 262.756561,168.845123 
	C263.819611,167.856415 264.882690,166.867691 266.575684,165.776215 
	C267.440460,164.881805 268.305267,163.987396 269.731903,162.864594 
	C270.471802,162.180939 271.211670,161.497284 272.578094,160.731262 
	C273.450439,159.856812 274.322784,158.982361 275.754913,157.892288 
	C276.492859,157.223862 277.230774,156.555435 278.609375,155.824615 
	C279.518036,154.946762 280.426697,154.068924 281.720215,153.076202 
	C281.720215,153.076202 281.937134,152.738144 282.530792,152.711502 
	C283.052338,152.157928 283.573853,151.604355 284.652405,150.873734 
	C285.077057,150.478546 285.501678,150.083344 286.551666,149.653870 
	C287.445251,148.812805 288.338837,147.971756 289.757141,146.976456 
	C290.161438,146.613556 290.565765,146.250656 291.584442,145.839844 
	C292.143341,145.275345 292.702240,144.710831 293.675568,144.024887 
	C293.675568,144.024887 293.925446,143.672684 294.519592,143.693710 
	C295.059723,143.154602 295.599884,142.615494 296.680359,141.914673 
	C297.104492,141.546753 297.528625,141.178848 298.561005,140.783966 
	C299.122681,140.235382 299.684357,139.686798 300.665558,139.019073 
	C300.665558,139.019073 300.925232,138.668655 301.520142,138.683441 
	C302.067688,138.152176 302.615204,137.620911 303.702759,136.965027 
	C304.119843,136.608810 304.536957,136.252594 305.632874,135.841812 
	C307.209442,134.631317 308.786041,133.420837 310.963013,132.049088 
	C311.962555,131.316208 312.962097,130.583328 314.625732,129.844284 
	C315.817932,128.934036 317.010132,128.023788 318.635040,127.027168 
	C318.635040,127.027168 318.931824,126.700623 319.532959,126.696312 
	C320.116089,126.184380 320.699188,125.672447 321.677704,125.079086 
	C321.677704,125.079086 321.946716,124.778053 322.607269,124.784538 
	C323.813110,123.898895 325.018951,123.013252 326.885223,121.949097 
	C330.242065,119.927628 333.598907,117.906166 337.637299,115.871613 
	C340.272705,113.074425 337.486267,111.605415 335.988068,109.102730 
	C334.238281,105.763268 332.488495,102.423813 330.761475,98.389534 
	C329.625702,96.439987 328.489929,94.490440 327.227936,91.913490 
	C326.740631,90.967896 326.253296,90.022301 325.789825,88.339386 
	C321.294312,78.756660 316.798828,69.173943 312.204071,58.911407 
	C311.674255,57.644688 311.144440,56.377968 310.665405,54.380737 
	C309.518951,51.814709 308.372498,49.248684 307.146362,45.999748 
	C306.856110,45.384769 306.565857,44.769791 306.394012,43.419601 
	C304.236359,35.770561 302.078705,28.121521 299.921051,20.472479 
	C299.535553,20.502131 299.150055,20.531784 298.764557,20.561436 
	C297.954803,24.740999 297.145050,28.920565 296.070404,33.739040 
	C295.877197,34.640045 295.684021,35.541054 294.965637,36.902267 
	C293.532532,41.320236 292.099426,45.738205 290.261108,50.691807 
	C290.080505,51.334400 289.899902,51.976997 289.140991,52.984329 
	C288.281799,55.372261 287.422607,57.760189 286.179382,60.732346 
	C285.703461,62.039921 285.227539,63.347492 284.167084,65.008606 
	C281.547363,71.037949 278.927673,77.067291 275.966522,83.649506 
	C275.555603,84.644478 275.144714,85.639450 274.140381,86.965279 
	C271.239441,93.018890 268.338501,99.072510 265.071808,105.556244 
	C264.955994,105.911781 264.840179,106.267319 264.128815,106.939346 
	C263.169403,108.987099 262.209991,111.034859 260.901794,113.588661 
	C260.557709,114.327377 260.213654,115.066086 259.275757,116.104698 
	C257.976318,118.774506 256.676880,121.444313 254.941193,124.677620 
	C249.590500,134.395309 244.239807,144.113007 238.292755,154.078873 
	C237.648361,155.422958 237.003952,156.767059 235.983154,158.607910 
	C235.619263,159.350174 235.255386,160.092438 234.298508,161.121918 
	C233.283417,163.109207 232.268311,165.096497 230.985519,167.421249 
	C230.985519,167.421249 230.897842,167.842987 230.292831,168.109375 
	C229.288208,170.103180 228.283569,172.096985 226.880600,174.554382 
	C226.524429,175.278778 226.168243,176.003174 225.249008,176.963867 
	C224.975784,177.684021 224.702576,178.404190 223.961288,179.647827 
	C222.620453,182.066315 221.279617,184.484818 219.343689,187.173676 
	C218.339645,189.150528 217.335587,191.127380 215.958176,193.596298 
	C215.593277,194.329514 215.228394,195.062729 214.266327,196.083511 
	C213.254349,198.081543 212.242371,200.079590 210.965561,202.404678 
	C210.965561,202.404678 210.879059,202.816544 210.272034,203.084183 
	C209.273254,205.086044 208.274475,207.087921 206.877670,209.558350 
	C206.530258,210.291397 206.182846,211.024429 205.227753,212.035522 
	C204.229797,214.049820 203.231842,216.064102 201.840485,218.542786 
	C201.496628,219.269516 201.152786,219.996246 200.205200,221.013016 
	C199.215332,223.034912 198.225479,225.056824 196.840057,227.544250 
	C196.501450,228.276978 196.162857,229.009705 195.218796,230.034821 
	C193.881165,232.713333 192.543549,235.391846 190.953201,238.405396 
	C190.953201,238.405396 190.879883,238.818588 190.281387,239.111664 
	C188.642761,242.444839 187.004150,245.778015 185.011612,249.532501 
	C184.899612,249.879242 184.787613,250.225998 184.079117,250.894348 
	C183.127579,252.954666 182.176041,255.014969 180.971878,257.424377 
	C180.971878,257.424377 180.901474,257.849518 180.320862,258.124542 
	C179.784821,259.471893 179.248779,260.819275 178.246368,262.762756 
	C177.956635,263.458130 177.666901,264.153534 176.857834,265.220764 
	C175.299759,268.604065 173.741684,271.987366 171.712402,275.833496 
	C171.273270,276.864960 170.834152,277.896454 169.828781,279.231384 
	C168.642792,282.558563 167.456818,285.885712 166.270828,289.212891 
	C166.522583,289.337036 166.774353,289.461212 167.026108,289.585358 
	C168.794006,286.114868 170.561905,282.644409 172.703674,278.738312 
M273.270477,283.157684 
	C278.735260,278.707520 284.127167,274.164124 289.677002,269.822693 
	C319.776093,246.277359 352.668518,227.611328 388.206970,213.586136 
	C389.831421,212.945053 391.406738,212.179474 393.435669,211.281189 
	C390.598480,206.288040 388.099670,201.890427 385.539154,197.384201 
	C384.046448,198.053207 383.124573,198.411880 382.252045,198.865372 
	C357.367096,211.799194 333.557281,226.511917 312.017517,244.468796 
	C297.386169,256.666382 283.833282,270.157654 269.214539,283.672485 
	C270.603088,287.638428 271.579315,284.485382 273.270477,283.157684 
M401.938049,299.856842 
	C400.000122,300.728302 398.062225,301.599762 395.465698,302.388885 
	C394.163666,303.148315 392.861633,303.907745 390.871918,304.806641 
	C388.964600,305.750977 387.057281,306.695312 384.479248,307.544800 
	C382.586700,308.652954 380.694183,309.761108 378.118347,311.021912 
	C374.126038,313.202179 370.133728,315.382477 365.562134,317.483093 
	C364.992432,317.957245 364.422729,318.431366 363.205841,319.119141 
	C360.842621,320.550323 358.479431,321.981506 355.519318,323.343597 
	C354.940979,323.848267 354.362671,324.352936 353.146179,325.053558 
	C351.467224,326.159546 349.788239,327.265503 347.510742,328.311401 
	C346.939758,328.830078 346.368805,329.348755 345.199341,330.081818 
	C344.162048,330.813416 343.124756,331.545044 341.480377,332.262787 
	C340.914856,332.794891 340.349365,333.326996 339.194458,334.095154 
	C338.161804,334.834015 337.129150,335.572876 335.505035,336.346497 
	C334.964996,336.873871 334.424988,337.401276 333.443970,338.096954 
	C333.443970,338.096954 333.126160,338.445923 332.544006,338.391754 
	C332.019653,338.922180 331.495300,339.452576 330.434052,340.199310 
	C329.987427,340.565979 329.540802,340.932617 328.500366,341.319366 
	C327.972351,341.862610 327.444336,342.405823 326.380310,343.160156 
	C325.951996,343.540741 325.523651,343.921326 324.499603,344.309113 
	C323.974670,344.857574 323.449707,345.406036 322.386047,346.160583 
	C321.955994,346.541687 321.525909,346.922760 320.503510,347.329590 
	C319.998260,347.884064 319.493011,348.438538 318.427734,349.247498 
	C317.644531,349.907990 316.861328,350.568481 315.454651,351.318390 
	C314.583832,352.179138 313.713013,353.039886 312.299072,354.161438 
	C311.553345,354.831909 310.807617,355.502380 309.432739,356.252197 
	C308.574310,357.138519 307.715851,358.024841 306.298340,359.198425 
	C305.221161,360.195282 304.143982,361.192108 302.468048,362.229279 
	C301.987183,362.823181 301.506317,363.417084 300.468933,364.374939 
	C297.339508,367.326477 294.210083,370.278015 290.464844,373.313263 
	C289.698334,374.236664 288.931824,375.160034 287.641266,376.363800 
	C287.124298,376.955841 286.607330,377.547913 285.437073,378.276917 
	C280.406708,383.890228 275.376312,389.503510 270.345947,395.116821 
	C272.428192,394.467865 273.880585,393.475098 275.132965,392.273804 
	C279.160614,388.410400 283.114380,384.470032 287.788605,380.302124 
	C293.154572,376.074493 298.520538,371.846863 304.471924,367.637695 
	C304.993439,367.098999 305.514954,366.560333 306.579926,365.810760 
	C307.019409,365.430328 307.458862,365.049896 308.493530,364.682892 
	C309.017090,364.134857 309.540649,363.586823 310.530701,362.846069 
	C310.640411,362.718475 310.750092,362.590912 311.428314,362.499908 
	C311.943695,361.995056 312.459106,361.490234 313.530365,360.785309 
	C313.986481,360.413055 314.442566,360.040833 315.495544,359.679657 
	C316.038971,359.145966 316.582367,358.612244 317.564636,357.910004 
	C317.564636,357.910004 317.876526,357.558289 318.463928,357.614075 
	C319.010559,357.097565 319.557190,356.581024 320.717651,355.853058 
	C321.773315,355.101959 322.829010,354.350861 324.478668,353.661041 
	C325.042664,353.144073 325.606628,352.627075 326.800293,351.880768 
	C328.493591,350.776642 330.186859,349.672516 332.475250,348.646179 
	C333.052307,348.142822 333.629364,347.639496 334.804932,346.972260 
	C335.501160,346.527344 336.197388,346.082428 337.544403,345.625580 
	C338.746246,344.782410 339.948059,343.939270 341.786774,342.887054 
	C343.150238,342.109009 344.513672,341.330963 346.572906,340.518921 
	C349.094849,339.042297 351.616791,337.565674 354.829651,335.932861 
	C356.500702,335.040070 358.171722,334.147278 360.468811,333.401733 
	C361.712921,332.645691 362.957001,331.889679 364.802155,331.030884 
	C365.155273,330.836945 365.508392,330.643005 366.572479,330.465454 
	C369.465607,329.034027 372.358765,327.602600 375.832458,326.089935 
	C376.184204,325.925079 376.535980,325.760223 377.621490,325.627838 
	C380.865448,324.168488 384.109406,322.709167 388.019104,321.157043 
	C388.630798,320.894989 389.242493,320.632965 390.588959,320.454590 
	C394.163330,319.042419 397.737701,317.630280 401.981750,316.155853 
	C402.611328,315.933167 403.240906,315.710480 404.636810,315.574341 
	C410.743988,313.648773 416.851135,311.723236 423.622284,309.782410 
	C424.032166,309.625824 424.442047,309.469238 425.578674,309.523773 
	C427.864868,308.794403 430.151093,308.065033 432.971527,307.350372 
	C433.311432,307.249786 433.651306,307.149200 434.386108,307.321259 
	C435.091949,307.023376 435.797791,306.725494 437.014954,306.418610 
	C437.337677,306.313202 437.660400,306.207794 438.451263,306.343231 
	C438.982483,305.441681 440.163116,304.298462 439.933014,303.680145 
	C438.912506,300.937439 437.487213,298.345306 436.092438,294.999603 
	C435.501526,293.717377 434.910614,292.435181 434.467865,290.576477 
	C433.979523,290.048889 433.491180,289.521301 432.386108,288.639404 
	C431.928925,288.733185 431.471771,288.826965 430.515320,288.642883 
	C428.909729,289.358490 427.304169,290.074127 425.020264,290.866028 
	C424.395630,291.122650 423.770966,291.379272 422.427765,291.537354 
	C419.860077,292.628387 417.292389,293.719452 414.026978,294.910553 
	C412.730255,295.456512 411.433533,296.002472 409.427246,296.485565 
	C407.161346,297.568848 404.895447,298.652130 401.938049,299.856842 
M237.129074,547.773926 
	C236.456802,549.251709 235.560974,550.675903 235.189621,552.225830 
	C234.935226,553.287537 235.410934,554.524231 235.560287,555.682678 
	C236.532654,555.083374 237.849182,554.704834 238.405014,553.838379 
	C239.526199,552.090332 240.233780,550.076965 241.579712,547.825928 
	C241.893768,547.174927 242.207809,546.523987 243.012360,545.361389 
	C274.820526,489.838470 320.613373,449.894806 378.717499,423.735870 
	C403.302032,412.667755 428.993225,405.231232 455.572510,400.739349 
	C457.164948,400.470215 459.602631,398.561035 459.705109,397.261841 
	C460.158386,391.514435 459.901245,385.710999 459.901245,380.063568 
	C458.761597,379.721313 458.288208,379.435333 457.842468,379.473358 
	C456.685974,379.571991 455.530914,379.762909 454.393921,380.004669 
	C392.168640,393.234314 338.028992,421.551239 293.119202,466.862518 
	C270.553223,489.630249 252.162857,515.408691 238.225327,544.940857 
	C238.001038,545.669556 237.776749,546.398315 237.129074,547.773926 
M170.596268,421.210785 
	C178.108139,403.977539 184.574326,386.193634 193.309937,369.604828 
	C234.699524,291.006317 296.079681,232.357834 374.191864,190.760178 
	C376.015625,189.788971 377.759979,188.668640 379.711945,187.517258 
	C367.690460,166.304596 355.995544,145.668182 344.137665,124.744141 
	C341.648682,126.168427 339.622925,127.275185 337.647644,128.465683 
	C293.303955,155.191681 254.622116,188.597229 221.102310,227.958603 
	C192.039948,262.085754 168.058304,299.334747 153.652573,342.124084 
	C140.226822,382.002563 137.154037,422.211670 151.031403,462.725098 
	C152.225769,466.211914 153.714554,469.597870 155.176712,473.310333 
	C160.350021,455.728668 165.321533,438.832794 170.596268,421.210785 
M271.881866,376.388092 
	C315.732361,330.676331 368.151520,298.481506 428.192566,278.141266 
	C427.520142,276.451752 427.186676,275.349670 426.665833,274.344696 
	C418.235260,258.077667 409.690094,241.869034 401.403717,225.529083 
	C399.611511,221.995026 397.887268,220.992752 394.154388,222.831345 
	C380.417328,229.597473 366.107880,235.328140 352.837738,242.893677 
	C296.361084,275.092194 254.155685,320.807373 225.368973,379.091553 
	C205.351349,419.620972 195.213577,462.876648 189.029648,507.284851 
	C188.773361,509.125336 188.996918,511.032623 188.996918,512.908813 
	C189.631485,513.119568 190.266052,513.330383 190.900620,513.541138 
	C207.177338,461.657318 234.170456,416.207581 271.881866,376.388092 
M454.527649,368.977600 
	C458.182739,368.791046 458.348236,366.524689 457.650421,363.741150 
	C454.656128,351.796600 452.048767,339.737793 448.564148,327.938080 
	C444.804840,315.208221 444.461060,315.362793 431.419495,319.152313 
	C393.483978,330.175323 359.490479,348.942566 327.956238,372.325256 
	C294.473145,397.153046 265.130768,426.018585 243.882797,462.283203 
	C230.097519,485.811005 221.254944,510.882446 222.311386,538.659912 
	C222.424820,541.642578 222.937759,544.610168 223.265381,547.584717 
	C225.049927,546.202820 225.732513,544.891479 226.351669,543.550781 
	C245.102371,502.948456 271.828796,468.445740 306.033447,439.727692 
	C349.172882,403.508087 398.622437,380.412598 454.527649,368.977600 
M358.348419,450.881561 
	C317.756226,479.105774 290.771545,516.573486 280.516479,565.460388 
	C282.428558,564.091858 283.772614,562.260071 285.332489,560.635559 
	C295.937286,549.591370 305.934448,537.856201 317.343781,527.711792 
	C353.810699,495.287720 396.366791,474.360596 443.780853,463.223114 
	C447.268921,462.403778 449.414459,461.055725 450.152954,457.388123 
	C452.909729,443.696655 455.848816,430.041962 458.630432,416.355377 
	C458.937378,414.845001 458.671906,413.218292 458.671906,411.600311 
	C430.619507,413.906006 385.461792,431.597321 358.348419,450.881561 
M422.609802,480.284515 
	C371.418182,497.294281 328.263214,525.950745 294.480133,568.318665 
	C329.032837,569.840881 360.511780,561.056763 388.867493,541.652893 
	C413.329376,524.913574 431.062134,502.615021 443.750275,474.151062 
	C436.006012,476.385681 429.684662,478.209747 422.609802,480.284515 
M262.977142,291.498322 
	C264.965973,289.871094 266.954773,288.243866 268.943604,286.616638 
	C268.399384,286.078979 267.855164,285.541321 267.310944,285.003662 
	C265.703064,287.006073 264.095215,289.008484 262.977142,291.498322 
M266.442841,399.606323 
	C266.681305,399.470184 266.919800,399.334045 267.158295,399.197937 
	C266.995270,399.321167 266.832214,399.444366 266.442841,399.606323 
z"/>
<path fill="#3C3C3E" opacity="1.000000" stroke="none" 
	d="
M170.444672,421.573853 
	C165.321533,438.832794 160.350021,455.728668 155.176712,473.310333 
	C153.714554,469.597870 152.225769,466.211914 151.031403,462.725098 
	C137.154037,422.211670 140.226822,382.002563 153.652573,342.124084 
	C168.058304,299.334747 192.039948,262.085754 221.102310,227.958603 
	C254.622116,188.597229 293.303955,155.191681 337.647644,128.465683 
	C339.622925,127.275185 341.648682,126.168427 344.137665,124.744141 
	C355.995544,145.668182 367.690460,166.304596 379.711945,187.517258 
	C377.759979,188.668640 376.015625,189.788971 374.191864,190.760178 
	C296.079681,232.357834 234.699524,291.006317 193.309937,369.604828 
	C184.574326,386.193634 178.108139,403.977539 170.444672,421.573853 
z"/>
<path fill="#04AFEF" opacity="1.000000" stroke="none" 
	d="
M271.633728,376.641602 
	C234.170456,416.207581 207.177338,461.657318 190.900620,513.541138 
	C190.266052,513.330383 189.631485,513.119568 188.996918,512.908813 
	C188.996918,511.032623 188.773361,509.125336 189.029648,507.284851 
	C195.213577,462.876648 205.351349,419.620972 225.368973,379.091553 
	C254.155685,320.807373 296.361084,275.092194 352.837738,242.893677 
	C366.107880,235.328140 380.417328,229.597473 394.154388,222.831345 
	C397.887268,220.992752 399.611511,221.995026 401.403717,225.529083 
	C409.690094,241.869034 418.235260,258.077667 426.665833,274.344696 
	C427.186676,275.349670 427.520142,276.451752 428.192566,278.141266 
	C368.151520,298.481506 315.732361,330.676331 271.633728,376.641602 
z"/>
<path fill="#EC048E" opacity="1.000000" stroke="none" 
	d="
M454.118011,369.063660 
	C398.622437,380.412598 349.172882,403.508087 306.033447,439.727692 
	C271.828796,468.445740 245.102371,502.948456 226.351669,543.550781 
	C225.732513,544.891479 225.049927,546.202820 223.265381,547.584717 
	C222.937759,544.610168 222.424820,541.642578 222.311386,538.659912 
	C221.254944,510.882446 230.097519,485.811005 243.882797,462.283203 
	C265.130768,426.018585 294.473145,397.153046 327.956238,372.325256 
	C359.490479,348.942566 393.483978,330.175323 431.419495,319.152313 
	C444.461060,315.362793 444.804840,315.208221 448.564148,327.938080 
	C452.048767,339.737793 454.656128,351.796600 457.650421,363.741150 
	C458.348236,366.524689 458.182739,368.791046 454.118011,369.063660 
z"/>
<path fill="#FFF205" opacity="1.000000" stroke="none" 
	d="
M358.647186,450.680115 
	C385.461792,431.597321 430.619507,413.906006 458.671906,411.600311 
	C458.671906,413.218292 458.937378,414.845001 458.630432,416.355377 
	C455.848816,430.041962 452.909729,443.696655 450.152954,457.388123 
	C449.414459,461.055725 447.268921,462.403778 443.780853,463.223114 
	C396.366791,474.360596 353.810699,495.287720 317.343781,527.711792 
	C305.934448,537.856201 295.937286,549.591370 285.332489,560.635559 
	C283.772614,562.260071 282.428558,564.091858 280.516479,565.460388 
	C290.771545,516.573486 317.756226,479.105774 358.647186,450.680115 
z"/>
<path fill="#3E3E40" opacity="1.000000" stroke="none" 
	d="
M207.102753,227.185669 
	C206.550537,228.010254 205.998322,228.834839 204.851807,229.858734 
	C203.889297,230.795700 203.521088,231.533371 203.152878,232.271042 
	C203.152878,232.271042 203.024429,232.681213 202.543335,232.857681 
	C201.723099,233.717575 201.383972,234.401016 201.044846,235.084457 
	C200.748764,235.576508 200.452682,236.068573 199.591827,236.792664 
	C198.411789,238.121155 197.796555,239.217621 197.181335,240.314102 
	C196.492477,241.376434 195.803604,242.438766 194.567657,243.763763 
	C193.698792,244.718613 193.377014,245.410812 193.055252,246.103012 
	C192.115005,247.567459 191.174774,249.031891 189.669632,250.777588 
	C188.783859,251.789673 188.462967,252.520508 188.142090,253.251343 
	C188.142090,253.251343 188.044434,253.669312 187.576874,253.848419 
	C186.739471,254.684799 186.369644,255.342056 185.999817,255.999298 
	C185.063980,257.475586 184.128128,258.951874 182.699478,260.833435 
	C181.831787,262.208435 181.456924,263.178101 181.082062,264.147797 
	C181.082062,264.147797 180.995865,264.594360 180.424530,264.763519 
	C179.027847,264.904755 178.202515,264.876831 177.377167,264.848907 
	C177.666901,264.153534 177.956635,263.458130 178.769226,262.342773 
	C179.828568,260.565063 180.365021,259.207275 180.901474,257.849518 
	C180.901474,257.849518 180.971878,257.424377 181.432922,257.179718 
	C182.821198,254.814285 183.748413,252.693512 184.675629,250.572739 
	C184.787613,250.225998 184.899612,249.879242 185.506775,249.235138 
	C187.627914,245.564713 189.253891,242.191650 190.879883,238.818573 
	C190.879883,238.818588 190.953201,238.405396 191.411682,238.173401 
	C193.188187,235.208405 194.506210,232.475418 195.824249,229.742432 
	C196.162857,229.009705 196.501450,228.276978 197.368851,227.241837 
	C198.868073,224.867279 199.838516,222.795120 200.808945,220.722977 
	C201.152786,219.996246 201.496628,219.269516 202.368240,218.243317 
	C203.875809,215.881714 204.855621,213.819595 205.835449,211.757477 
	C206.182846,211.024429 206.530258,210.291397 207.405151,209.255737 
	C208.914764,206.907608 209.896912,204.862076 210.879059,202.816544 
	C210.879059,202.816544 210.965561,202.404678 211.429321,202.175278 
	C212.883224,199.895889 213.873367,197.845917 214.863495,195.795929 
	C215.228394,195.062729 215.593277,194.329514 216.470001,193.280548 
	C217.967484,190.944305 218.953125,188.923813 219.938782,186.903320 
	C221.279617,184.484818 222.620453,182.066315 224.496414,179.293671 
	C225.291733,178.202194 225.551910,177.464890 225.812088,176.727585 
	C226.168243,176.003174 226.524429,175.278778 227.407883,174.254822 
	C228.922729,171.917847 229.910294,169.880417 230.897858,167.842987 
	C230.897842,167.842987 230.985519,167.421249 231.448700,167.184799 
	C232.905090,164.910461 233.898300,162.872589 234.891510,160.834702 
	C235.255386,160.092438 235.619263,159.350174 236.496582,158.288269 
	C237.636383,156.589310 238.262741,155.210007 238.889114,153.830688 
	C244.239807,144.113007 249.590500,134.395309 255.477173,124.308426 
	C257.298645,121.227753 258.584106,118.516273 259.869568,115.804802 
	C260.213654,115.066086 260.557709,114.327377 261.409241,113.265816 
	C262.852600,110.836273 263.788513,108.729568 264.724396,106.622864 
	C264.840179,106.267319 264.955994,105.911781 265.566315,105.242905 
	C268.951813,98.831192 271.842804,92.732811 274.733795,86.634422 
	C275.144714,85.639450 275.555603,84.644478 276.467529,83.294701 
	C279.562866,76.844955 282.157257,70.750015 284.751617,64.655067 
	C285.227539,63.347492 285.703461,62.039921 286.684875,60.329357 
	C288.033325,57.490776 288.876312,55.055187 289.719299,52.619598 
	C289.899902,51.976997 290.080505,51.334400 290.753693,50.277771 
	C292.661133,45.389843 294.075958,40.915951 295.490814,36.442059 
	C295.684021,35.541054 295.877197,34.640045 296.536499,33.316177 
	C297.854858,30.545378 298.707062,28.197439 299.820068,25.130941 
	C300.606567,27.812681 301.115356,29.858231 301.806763,31.840050 
	C303.245117,35.962856 304.780243,40.051895 306.275635,44.154808 
	C306.565857,44.769791 306.856110,45.384769 307.099976,46.728508 
	C308.240601,50.008591 309.427643,52.559914 310.614624,55.111244 
	C311.144440,56.377968 311.674255,57.644688 312.170593,59.640968 
	C315.782928,68.667389 319.389709,76.981834 323.112549,85.243980 
	C323.740295,86.637222 324.868835,87.804848 325.765991,89.076706 
	C326.253296,90.022301 326.740631,90.967896 327.201355,92.595879 
	C328.362732,95.213631 329.550720,97.149002 330.738708,99.084366 
	C332.488495,102.423813 334.238281,105.763268 336.034576,109.832031 
	C336.372650,112.335777 336.664215,114.110237 336.955750,115.884697 
	C333.598907,117.906166 330.242065,119.927628 326.202942,122.000427 
	C324.329346,122.960533 323.138031,123.869301 321.946716,124.778061 
	C321.946716,124.778053 321.677704,125.079086 321.156036,125.074379 
	C320.066864,125.613327 319.499359,126.156982 318.931824,126.700630 
	C318.931824,126.700623 318.635040,127.027168 318.064850,127.036804 
	C316.316986,127.981117 315.139313,128.915787 313.961639,129.850464 
	C312.962097,130.583328 311.962555,131.316208 310.298706,132.077484 
	C308.074310,133.369370 306.514160,134.632874 304.954041,135.896378 
	C304.536957,136.252594 304.119843,136.608810 303.117981,136.997253 
	C301.997192,137.575867 301.461212,138.122253 300.925232,138.668655 
	C300.925232,138.668655 300.665558,139.019073 300.124023,139.038116 
	C299.039215,139.641739 298.496002,140.226349 297.952759,140.810944 
	C297.528625,141.178848 297.104492,141.546753 296.095886,141.971741 
	C294.982788,142.576782 294.454132,143.124741 293.925446,143.672699 
	C293.925446,143.672684 293.675568,144.024887 293.131439,144.047195 
	C292.048218,144.675583 291.509125,145.281662 290.970062,145.887756 
	C290.565765,146.250656 290.161438,146.613556 289.156158,147.016541 
	C287.678894,147.933792 286.802612,148.810974 285.926331,149.688156 
	C285.501678,150.083344 285.077057,150.478546 284.059021,150.947205 
	C282.956116,151.593155 282.446625,152.165649 281.937134,152.738144 
	C281.937134,152.738144 281.720215,153.076202 281.172974,153.089859 
	C279.740051,154.031342 278.854370,154.959167 277.968719,155.886993 
	C277.230774,156.555435 276.492859,157.223862 275.131195,157.969315 
	C273.655487,158.968765 272.803528,159.891190 271.951538,160.813629 
	C271.211670,161.497284 270.471802,162.180939 269.104980,162.952530 
	C267.633972,163.986633 266.789856,164.932816 265.945740,165.878998 
	C264.882690,166.867691 263.819611,167.856415 262.118164,168.955139 
	C259.960236,170.649689 258.440643,172.234238 256.921082,173.818787 
	C253.831573,176.788116 250.742065,179.757446 247.008881,182.880371 
	C241.935272,187.736084 237.505325,192.438171 233.075378,197.140274 
	C230.561157,199.978760 228.046936,202.817245 224.892365,205.840073 
	C223.533875,207.075516 222.815704,208.126617 222.097565,209.177704 
	C221.476334,209.978043 220.855087,210.778366 219.655121,211.790039 
	C218.394272,213.020142 217.712158,214.038910 217.030060,215.057678 
	C216.118271,216.231995 215.206497,217.406311 213.715332,218.800751 
	C212.767593,219.700348 212.399246,220.379852 212.030899,221.059357 
	C211.427399,221.895721 210.823898,222.732086 209.632538,223.787628 
	C208.397354,225.066422 207.750061,226.126038 207.102753,227.185669 
z"/>
<path fill="#3E3E40" opacity="1.000000" stroke="none" 
	d="
M422.986542,480.159149 
	C429.684662,478.209747 436.006012,476.385681 443.750275,474.151062 
	C431.062134,502.615021 413.329376,524.913574 388.867493,541.652893 
	C360.511780,561.056763 329.032837,569.840881 294.480133,568.318665 
	C328.263214,525.950745 371.418182,497.294281 422.986542,480.159149 
z"/>
<path fill="#434345" opacity="1.000000" stroke="none" 
	d="
M238.726852,544.608398 
	C252.162857,515.408691 270.553223,489.630249 293.119202,466.862518 
	C338.028992,421.551239 392.168640,393.234314 454.393921,380.004669 
	C455.530914,379.762909 456.685974,379.571991 457.842468,379.473358 
	C458.288208,379.435333 458.761597,379.721313 459.901245,380.063568 
	C459.901245,385.710999 460.158386,391.514435 459.705109,397.261841 
	C459.602631,398.561035 457.164948,400.470215 455.572510,400.739349 
	C428.993225,405.231232 403.302032,412.667755 378.717499,423.735870 
	C320.613373,449.894806 274.820526,489.838470 242.441772,545.659424 
	C241.618103,546.696045 241.365021,547.434509 241.111969,548.173035 
	C240.233780,550.076965 239.526199,552.090332 238.405014,553.838379 
	C237.849182,554.704834 236.532654,555.083374 235.560272,555.682678 
	C235.410934,554.524231 234.935226,553.287537 235.189621,552.225830 
	C235.560974,550.675903 236.456802,549.251709 237.643646,547.344360 
	C238.347748,546.145996 238.537308,545.377197 238.726852,544.608398 
z"/>
<path fill="#444446" opacity="1.000000" stroke="none" 
	d="
M325.095337,344.301910 
	C325.523651,343.921326 325.951996,343.540741 326.961212,343.075439 
	C328.059479,342.426941 328.576843,341.863098 329.094177,341.299286 
	C329.540802,340.932617 329.987427,340.565979 331.001831,340.106262 
	C332.088470,339.490814 332.607330,338.968353 333.126160,338.445923 
	C333.126160,338.445923 333.443970,338.096954 333.977295,338.038544 
	C335.039276,337.423981 335.567902,336.867859 336.096527,336.311707 
	C337.129150,335.572876 338.161804,334.834015 339.809998,334.014832 
	C340.979523,333.381897 341.533478,332.829285 342.087463,332.276672 
	C343.124756,331.545044 344.162048,330.813416 345.812073,330.012360 
	C346.986267,329.419098 347.547791,328.895294 348.109283,328.371490 
	C349.788239,327.265503 351.467224,326.159546 353.775787,325.000183 
	C354.975677,324.435486 355.545959,323.924103 356.116241,323.412720 
	C358.479431,321.981506 360.842621,320.550323 363.828674,319.060669 
	C365.014801,318.522400 365.578094,318.042572 366.141418,317.562744 
	C370.133728,315.382477 374.126038,313.202179 378.814453,310.981812 
	C381.390381,309.841034 383.270172,308.740356 385.149963,307.639679 
	C387.057281,306.695312 388.964600,305.750977 391.562744,304.822327 
	C393.543793,304.049072 394.834045,303.260162 396.124298,302.471222 
	C398.062225,301.599762 400.000122,300.728302 402.661560,299.866150 
	C405.635620,298.766479 407.886200,297.657440 410.136780,296.548431 
	C411.433533,296.002472 412.730255,295.456512 414.756897,294.918518 
	C418.039978,293.829620 420.593140,292.732727 423.146301,291.635864 
	C423.770966,291.379272 424.395630,291.122650 425.730438,290.892944 
	C427.965271,290.253479 429.489929,289.587097 431.014587,288.920715 
	C431.471771,288.826965 431.928925,288.733185 432.679321,289.097504 
	C433.421539,290.088074 433.870605,290.620544 434.319672,291.152985 
	C434.910614,292.435181 435.501526,293.717377 436.097595,295.729431 
	C436.729553,299.673645 437.356354,302.888031 437.983154,306.102417 
	C437.660400,306.207794 437.337677,306.313202 436.418030,306.297485 
	C435.211151,306.467102 434.601196,306.757843 433.991211,307.048615 
	C433.651306,307.149200 433.311432,307.249786 432.312347,307.229309 
	C429.386078,307.843079 427.118988,308.577850 424.851929,309.312622 
	C424.442047,309.469238 424.032166,309.625824 423.049133,309.573120 
	C416.274170,311.405151 410.072327,313.446472 403.870483,315.487793 
	C403.240906,315.710480 402.611328,315.933167 401.255585,316.122925 
	C396.971008,317.516968 393.412567,318.943939 389.854156,320.370911 
	C389.242493,320.632965 388.630798,320.894989 387.296936,321.141510 
	C383.345764,322.615784 380.116760,324.105591 376.887726,325.595398 
	C376.535980,325.760223 376.184204,325.925079 375.165222,326.080933 
	C371.619141,327.530975 368.740326,328.990021 365.861511,330.449066 
	C365.508392,330.643005 365.155273,330.836945 364.173187,331.032043 
	C362.310394,331.773621 361.076599,332.514069 359.842773,333.254486 
	C358.171722,334.147278 356.500702,335.040070 354.118225,335.982758 
	C350.896881,337.539398 348.386993,339.046143 345.877136,340.552917 
	C344.513672,341.330963 343.150238,342.109009 341.126343,342.954498 
	C339.275116,343.893799 338.084351,344.765656 336.893585,345.637512 
	C336.197388,346.082428 335.501160,346.527344 334.196350,347.006989 
	C333.018555,347.550598 332.449341,348.059479 331.880157,348.568390 
	C330.186859,349.672516 328.493591,350.776642 326.175720,351.962219 
	C324.995667,352.562347 324.440186,353.081085 323.884705,353.599792 
	C322.829010,354.350861 321.773315,355.101959 320.108948,355.933228 
	C318.958984,356.528351 318.417755,357.043335 317.876526,357.558289 
	C317.876526,357.558289 317.564636,357.910004 317.032288,357.966858 
	C315.966187,358.571991 315.432434,359.120270 314.898682,359.668579 
	C314.442566,360.040833 313.986481,360.413055 312.965576,360.872711 
	C311.887085,361.461182 311.373444,361.962250 310.859802,362.463318 
	C310.750092,362.590912 310.640411,362.718475 309.987366,362.922485 
	C308.928772,363.555725 308.413544,364.112579 307.898315,364.669434 
	C307.458862,365.049896 307.019409,365.430328 306.006256,365.907288 
	C304.917236,366.542267 304.401886,367.080750 303.886505,367.619202 
	C298.520538,371.846863 293.154572,376.074493 287.341919,380.118378 
	C286.626923,379.336395 286.358673,378.738190 286.090393,378.139954 
	C286.607330,377.547913 287.124298,376.955841 288.222046,376.197632 
	C289.562073,375.097504 290.321381,374.163544 291.080658,373.229553 
	C294.210083,370.278015 297.339508,367.326477 301.059875,364.185242 
	C302.122803,363.393341 302.594788,362.791168 303.066803,362.188965 
	C304.143982,361.192108 305.221161,360.195282 306.916687,359.074860 
	C308.377319,358.025146 309.219604,357.098999 310.061890,356.172852 
	C310.807617,355.502380 311.553345,354.831909 312.907654,354.056824 
	C314.370178,353.044464 315.224152,352.136719 316.078125,351.228973 
	C316.861328,350.568481 317.644531,349.907990 319.015228,349.129211 
	C320.100433,348.441895 320.598145,347.872864 321.095825,347.303833 
	C321.525909,346.922760 321.955994,346.541687 322.964813,346.070496 
	C324.060822,345.420868 324.578064,344.861389 325.095337,344.301910 
z"/>
<path fill="#464647" opacity="1.000000" stroke="none" 
	d="
M269.798096,283.070404 
	C283.833282,270.157654 297.386169,256.666382 312.017517,244.468796 
	C333.557281,226.511917 357.367096,211.799194 382.252045,198.865372 
	C383.124573,198.411880 384.046448,198.053207 385.539154,197.384201 
	C388.099670,201.890427 390.598480,206.288040 393.435669,211.281189 
	C391.406738,212.179474 389.831421,212.945053 388.206970,213.586136 
	C352.668518,227.611328 319.776093,246.277359 289.677002,269.822693 
	C284.127167,274.164124 278.735260,278.707520 272.260590,283.167786 
	C270.766510,283.142090 270.282288,283.106232 269.798096,283.070404 
z"/>
<path fill="#727274" opacity="1.000000" stroke="none" 
	d="
M285.763733,378.208435 
	C286.358673,378.738190 286.626923,379.336395 286.995911,380.246979 
	C283.114380,384.470032 279.160614,388.410400 275.132965,392.273804 
	C273.880585,393.475098 272.428192,394.467865 270.345947,395.116821 
	C275.376312,389.503510 280.406708,383.890228 285.763733,378.208435 
z"/>
<path fill="#6F6F70" opacity="1.000000" stroke="none" 
	d="
M306.334839,43.787205 
	C304.780243,40.051895 303.245117,35.962856 301.806763,31.840050 
	C301.115356,29.858231 300.606567,27.812681 299.820068,25.130941 
	C298.707062,28.197439 297.854858,30.545378 296.668945,32.996719 
	C297.145050,28.920565 297.954803,24.740999 298.764557,20.561436 
	C299.150055,20.531784 299.535553,20.502131 299.921051,20.472479 
	C302.078705,28.121521 304.236359,35.770561 306.334839,43.787205 
z"/>
<path fill="#6F6F70" opacity="1.000000" stroke="none" 
	d="
M325.777893,88.708046 
	C324.868835,87.804848 323.740295,86.637222 323.112549,85.243980 
	C319.389709,76.981834 315.782928,68.667389 312.220245,59.980873 
	C316.798828,69.173943 321.294312,78.756660 325.777893,88.708046 
z"/>
<path fill="#626263" opacity="1.000000" stroke="none" 
	d="
M177.117493,265.034851 
	C178.202515,264.876831 179.027847,264.904755 180.266479,264.927063 
	C178.514282,268.706390 176.348770,272.491333 173.569946,276.135925 
	C172.698975,275.787262 172.441284,275.578949 172.183609,275.370667 
	C173.741684,271.987366 175.299759,268.604065 177.117493,265.034851 
z"/>
<path fill="#626263" opacity="1.000000" stroke="none" 
	d="
M233.402863,197.058197 
	C237.505325,192.438171 241.935272,187.736084 246.715088,183.033813 
	C242.620071,187.681107 238.175201,192.328598 233.402863,197.058197 
z"/>
<path fill="#6F6F70" opacity="1.000000" stroke="none" 
	d="
M274.437073,86.799850 
	C271.842804,92.732811 268.951813,98.831192 265.749207,105.027847 
	C268.338501,99.072510 271.239441,93.018890 274.437073,86.799850 
z"/>
<path fill="#6F6F70" opacity="1.000000" stroke="none" 
	d="
M284.459351,64.831833 
	C282.157257,70.750015 279.562866,76.844955 276.638245,83.018265 
	C278.927673,77.067291 281.547363,71.037949 284.459351,64.831833 
z"/>
<path fill="#727274" opacity="1.000000" stroke="none" 
	d="
M404.253662,315.531067 
	C410.072327,313.446472 416.274170,311.405151 422.717163,309.580750 
	C416.851135,311.723236 410.743988,313.648773 404.253662,315.531067 
z"/>
<path fill="#848485" opacity="1.000000" stroke="none" 
	d="
M172.329803,279.173920 
	C170.561905,282.644409 168.794006,286.114868 167.026108,289.585358 
	C166.774353,289.461212 166.522583,289.337036 166.270828,289.212891 
	C167.456818,285.885712 168.642792,282.558563 170.595367,279.146667 
	C171.684555,279.099243 172.007187,279.136597 172.329803,279.173920 
z"/>
<path fill="#6F6F70" opacity="1.000000" stroke="none" 
	d="
M295.228210,36.672165 
	C294.075958,40.915951 292.661133,45.389843 290.956299,50.009953 
	C292.099426,45.738205 293.532532,41.320236 295.228210,36.672165 
z"/>
<path fill="#727274" opacity="1.000000" stroke="none" 
	d="
M438.217224,306.222839 
	C437.356354,302.888031 436.729553,299.673645 436.155518,296.078979 
	C437.487213,298.345306 438.912506,300.937439 439.933014,303.680145 
	C440.163116,304.298462 438.982483,305.441681 438.217224,306.222839 
z"/>
<path fill="#6F6F70" opacity="1.000000" stroke="none" 
	d="
M190.580627,238.965118 
	C189.253891,242.191650 187.627914,245.564713 185.683746,249.024475 
	C187.004150,245.778015 188.642761,242.444839 190.580627,238.965118 
z"/>
<path fill="#727274" opacity="1.000000" stroke="none" 
	d="
M390.221558,320.412750 
	C393.412567,318.943939 396.971008,317.516968 400.920715,316.154053 
	C397.737701,317.630280 394.163330,319.042419 390.221558,320.412750 
z"/>
<path fill="#727274" opacity="1.000000" stroke="none" 
	d="
M377.254608,325.611633 
	C380.116760,324.105591 383.345764,322.615784 386.964050,321.187897 
	C384.109406,322.709167 380.865448,324.168488 377.254608,325.611633 
z"/>
<path fill="#727274" opacity="1.000000" stroke="none" 
	d="
M366.216980,330.457275 
	C368.740326,328.990021 371.619141,327.530975 374.874939,326.121552 
	C372.358765,327.602600 369.465607,329.034027 366.216980,330.457275 
z"/>
<path fill="#6F6F70" opacity="1.000000" stroke="none" 
	d="
M259.572662,115.954750 
	C258.584106,118.516273 257.298645,121.227753 255.695282,124.026672 
	C256.676880,121.444313 257.976318,118.774506 259.572662,115.954750 
z"/>
<path fill="#727274" opacity="1.000000" stroke="none" 
	d="
M346.225037,340.535919 
	C348.386993,339.046143 350.896881,337.539398 353.772766,336.060852 
	C351.616791,337.565674 349.094849,339.042297 346.225037,340.535919 
z"/>
<path fill="#6F6F70" opacity="1.000000" stroke="none" 
	d="
M195.521515,229.888626 
	C194.506210,232.475418 193.188187,235.208405 191.538040,238.005890 
	C192.543549,235.391846 193.881165,232.713333 195.521515,229.888626 
z"/>
<path fill="#6F6F70" opacity="1.000000" stroke="none" 
	d="
M310.640015,54.745987 
	C309.427643,52.559914 308.240601,50.008591 307.139801,47.069962 
	C308.372498,49.248684 309.518951,51.814709 310.640015,54.745987 
z"/>
<path fill="#656566" opacity="1.000000" stroke="none" 
	d="
M262.732239,291.254608 
	C264.095215,289.008484 265.703064,287.006073 267.310944,285.003662 
	C267.855164,285.541321 268.399384,286.078979 268.943604,286.616638 
	C266.954773,288.243866 264.965973,289.871094 262.732239,291.254608 
z"/>
<path fill="#727274" opacity="1.000000" stroke="none" 
	d="
M422.787048,291.586609 
	C420.593140,292.732727 418.039978,293.829620 415.105774,294.868530 
	C417.292389,293.719452 419.860077,292.628387 422.787048,291.586609 
z"/>
<path fill="#727274" opacity="1.000000" stroke="none" 
	d="
M409.782013,296.516998 
	C407.886200,297.657440 405.635620,298.766479 403.007294,299.805481 
	C404.895447,298.652130 407.161346,297.568848 409.782013,296.516998 
z"/>
<path fill="#626263" opacity="1.000000" stroke="none" 
	d="
M257.244019,173.769348 
	C258.440643,172.234238 259.960236,170.649689 261.831421,169.082550 
	C260.644348,170.639938 259.105682,172.179932 257.244019,173.769348 
z"/>
<path fill="#727274" opacity="1.000000" stroke="none" 
	d="
M425.215302,309.418213 
	C427.118988,308.577850 429.386078,307.843079 432.045227,307.221985 
	C430.151093,308.065033 427.864868,308.794403 425.215302,309.418213 
z"/>
<path fill="#6F6F70" opacity="1.000000" stroke="none" 
	d="
M289.430145,52.801964 
	C288.876312,55.055187 288.033325,57.490776 286.876892,60.037247 
	C287.422607,57.760189 288.281799,55.372261 289.430145,52.801964 
z"/>
<path fill="#6F6F70" opacity="1.000000" stroke="none" 
	d="
M184.377380,250.733551 
	C183.748413,252.693512 182.821198,254.814285 181.559235,257.005188 
	C182.176041,255.014969 183.127579,252.954666 184.377380,250.733551 
z"/>
<path fill="#727274" opacity="1.000000" stroke="none" 
	d="
M384.814606,307.592224 
	C383.270172,308.740356 381.390381,309.841034 379.156128,310.905487 
	C380.694183,309.761108 382.586700,308.652954 384.814606,307.592224 
z"/>
<path fill="#6F6F70" opacity="1.000000" stroke="none" 
	d="
M200.507080,220.867996 
	C199.838516,222.795120 198.868073,224.867279 197.566620,227.009079 
	C198.225479,225.056824 199.215332,223.034912 200.507080,220.867996 
z"/>
<path fill="#6F6F70" opacity="1.000000" stroke="none" 
	d="
M205.531586,211.896500 
	C204.855621,213.819595 203.875809,215.881714 202.564941,218.011108 
	C203.231842,216.064102 204.229797,214.049820 205.531586,211.896500 
z"/>
<path fill="#6F6F70" opacity="1.000000" stroke="none" 
	d="
M330.750092,98.736954 
	C329.550720,97.149002 328.362732,95.213631 327.264465,92.909576 
	C328.489929,94.490440 329.625702,96.439987 330.750092,98.736954 
z"/>
<path fill="#6F6F70" opacity="1.000000" stroke="none" 
	d="
M234.595001,160.978302 
	C233.898300,162.872589 232.905090,164.910461 231.582550,167.016052 
	C232.268311,165.096497 233.283417,163.109207 234.595001,160.978302 
z"/>
<path fill="#6F6F70" opacity="1.000000" stroke="none" 
	d="
M230.595337,167.976181 
	C229.910294,169.880417 228.922729,171.917847 227.607056,174.023026 
	C228.283569,172.096985 229.288208,170.103180 230.595337,167.976181 
z"/>
<path fill="#6F6F70" opacity="1.000000" stroke="none" 
	d="
M264.426605,106.781105 
	C263.788513,108.729568 262.852600,110.836273 261.583618,113.012794 
	C262.209991,111.034859 263.169403,108.987099 264.426605,106.781105 
z"/>
<path fill="#6F6F70" opacity="1.000000" stroke="none" 
	d="
M210.575546,202.950363 
	C209.896912,204.862076 208.914764,206.907608 207.604156,209.021454 
	C208.274475,207.087921 209.273254,205.086044 210.575546,202.950363 
z"/>
<path fill="#6F6F70" opacity="1.000000" stroke="none" 
	d="
M337.296509,115.878159 
	C336.664215,114.110237 336.372650,112.335777 336.113342,110.171783 
	C337.486267,111.605415 340.272705,113.074425 337.296509,115.878159 
z"/>
<path fill="#6F6F70" opacity="1.000000" stroke="none" 
	d="
M219.641235,187.038498 
	C218.953125,188.923813 217.967484,190.944305 216.656677,193.034515 
	C217.335587,191.127380 218.339645,189.150528 219.641235,187.038498 
z"/>
<path fill="#6F6F70" opacity="1.000000" stroke="none" 
	d="
M214.564911,195.939728 
	C213.873367,197.845917 212.883224,199.895889 211.561752,202.011749 
	C212.242371,200.079590 213.254349,198.081543 214.564911,195.939728 
z"/>
<path fill="#626263" opacity="1.000000" stroke="none" 
	d="
M305.293457,135.869095 
	C306.514160,134.632874 308.074310,133.369370 309.998535,132.158112 
	C308.786041,133.420837 307.209442,134.631317 305.293457,135.869095 
z"/>
<path fill="#727274" opacity="1.000000" stroke="none" 
	d="
M430.764954,288.781799 
	C429.489929,289.587097 427.965271,290.253479 426.069580,290.854797 
	C427.304169,290.074127 428.909729,289.358490 430.764954,288.781799 
z"/>
<path fill="#626263" opacity="1.000000" stroke="none" 
	d="
M314.293701,129.847382 
	C315.139313,128.915787 316.316986,127.981117 317.848511,127.079987 
	C317.010132,128.023788 315.817932,128.934036 314.293701,129.847382 
z"/>
<path fill="#626263" opacity="1.000000" stroke="none" 
	d="
M322.276978,124.781296 
	C323.138031,123.869301 324.329346,122.960533 325.872742,122.089691 
	C325.018951,123.013252 323.813110,123.898895 322.276978,124.781296 
z"/>
<path fill="#727274" opacity="1.000000" stroke="none" 
	d="
M395.794983,302.430054 
	C394.834045,303.260162 393.543793,304.049072 391.906586,304.752594 
	C392.861633,303.907745 394.163666,303.148315 395.794983,302.430054 
z"/>
<path fill="#6F6F70" opacity="1.000000" stroke="none" 
	d="
M180.611176,257.987030 
	C180.365021,259.207275 179.828568,260.565063 179.002411,262.044739 
	C179.248779,260.819275 179.784821,259.471893 180.611176,257.987030 
z"/>
<path fill="#727274" opacity="1.000000" stroke="none" 
	d="
M360.155792,333.328125 
	C361.076599,332.514069 362.310394,331.773621 363.872650,331.083435 
	C362.957001,331.889679 361.712921,332.645691 360.155792,333.328125 
z"/>
<path fill="#6F6F70" opacity="1.000000" stroke="none" 
	d="
M238.590942,153.954773 
	C238.262741,155.210007 237.636383,156.589310 236.684784,158.039886 
	C237.003952,156.767059 237.648361,155.422958 238.590942,153.954773 
z"/>
<path fill="#727274" opacity="1.000000" stroke="none" 
	d="
M337.218994,345.631531 
	C338.084351,344.765656 339.275116,343.893799 340.807892,343.059021 
	C339.948059,343.939270 338.746246,344.782410 337.218994,345.631531 
z"/>
<path fill="#727274" opacity="1.000000" stroke="none" 
	d="
M315.766388,351.273682 
	C315.224152,352.136719 314.370178,353.044464 313.179199,353.926422 
	C313.713013,353.039886 314.583832,352.179138 315.766388,351.273682 
z"/>
<path fill="#626263" opacity="1.000000" stroke="none" 
	d="
M286.239014,149.671021 
	C286.802612,148.810974 287.678894,147.933792 288.893799,147.093658 
	C288.338837,147.971756 287.445251,148.812805 286.239014,149.671021 
z"/>
<path fill="#626263" opacity="1.000000" stroke="none" 
	d="
M278.289062,155.855804 
	C278.854370,154.959167 279.740051,154.031342 280.980530,153.147308 
	C280.426697,154.068924 279.518036,154.946762 278.289062,155.855804 
z"/>
<path fill="#727274" opacity="1.000000" stroke="none" 
	d="
M309.747314,356.212524 
	C309.219604,357.098999 308.377319,358.025146 307.196228,358.931213 
	C307.715851,358.024841 308.574310,357.138519 309.747314,356.212524 
z"/>
<path fill="#626263" opacity="1.000000" stroke="none" 
	d="
M217.331314,214.971313 
	C217.712158,214.038910 218.394272,213.020142 219.404327,211.966904 
	C219.032364,212.916595 218.332474,213.900787 217.331314,214.971313 
z"/>
<path fill="#626263" opacity="1.000000" stroke="none" 
	d="
M272.264832,160.772430 
	C272.803528,159.891190 273.655487,158.968765 274.851318,158.077118 
	C274.322784,158.982361 273.450439,159.856812 272.264832,160.772430 
z"/>
<path fill="#626263" opacity="1.000000" stroke="none" 
	d="
M266.260712,165.827606 
	C266.789856,164.932816 267.633972,163.986633 268.824066,163.066742 
	C268.305267,163.987396 267.440460,164.881805 266.260712,165.827606 
z"/>
<path fill="#727274" opacity="1.000000" stroke="none" 
	d="
M290.772766,373.271423 
	C290.321381,374.163544 289.562073,375.097504 288.484070,376.057465 
	C288.931824,375.160034 289.698334,374.236664 290.772766,373.271423 
z"/>
<path fill="#626263" opacity="1.000000" stroke="none" 
	d="
M222.407990,209.090363 
	C222.815704,208.126617 223.533875,207.075516 224.599884,205.999695 
	C224.204636,206.984329 223.461533,207.993683 222.407990,209.090363 
z"/>
<path fill="#626263" opacity="1.000000" stroke="none" 
	d="
M207.403976,227.087616 
	C207.750061,226.126038 208.397354,225.066422 209.376740,223.967346 
	C209.040955,224.948471 208.373077,225.969040 207.403976,227.087616 
z"/>
<path fill="#626263" opacity="1.000000" stroke="none" 
	d="
M197.478912,240.197372 
	C197.796555,239.217621 198.411789,238.121155 199.364731,236.976318 
	C199.060455,237.978867 198.418472,239.029755 197.478912,240.197372 
z"/>
<path fill="#626263" opacity="1.000000" stroke="none" 
	d="
M172.516739,278.956116 
	C172.007187,279.136597 171.684555,279.099243 170.878479,278.994934 
	C170.834152,277.896454 171.273270,276.864960 171.947998,275.602081 
	C172.441284,275.578949 172.698975,275.787262 173.310242,276.347473 
	C173.343796,277.379028 173.023743,278.058655 172.516739,278.956116 
z"/>
<path fill="#626263" opacity="1.000000" stroke="none" 
	d="
M181.377045,264.020325 
	C181.456924,263.178101 181.831787,262.208435 182.506516,261.111786 
	C182.428268,261.954163 182.050156,262.923492 181.377045,264.020325 
z"/>
<path fill="#727274" opacity="1.000000" stroke="none" 
	d="
M328.797272,341.309326 
	C328.576843,341.863098 328.059479,342.426941 327.229248,342.969910 
	C327.444336,342.405823 327.972351,341.862610 328.797272,341.309326 
z"/>
<path fill="#6D6D6F" opacity="1.000000" stroke="none" 
	d="
M241.345825,547.999512 
	C241.365021,547.434509 241.618103,546.696045 242.196518,545.915283 
	C242.207809,546.523987 241.893768,547.174927 241.345825,547.999512 
z"/>
<path fill="#727274" opacity="1.000000" stroke="none" 
	d="
M324.797485,344.305511 
	C324.578064,344.861389 324.060822,345.420868 323.234192,345.967438 
	C323.449707,345.406036 323.974670,344.857574 324.797485,344.305511 
z"/>
<path fill="#727274" opacity="1.000000" stroke="none" 
	d="
M320.799683,347.316711 
	C320.598145,347.872864 320.100433,348.441895 319.295227,349.001953 
	C319.493011,348.438538 319.998260,347.884064 320.799683,347.316711 
z"/>
<path fill="#727274" opacity="1.000000" stroke="none" 
	d="
M332.177704,348.607300 
	C332.449341,348.059479 333.018555,347.550598 333.897095,347.088928 
	C333.629364,347.639496 333.052307,348.142822 332.177704,348.607300 
z"/>
<path fill="#727274" opacity="1.000000" stroke="none" 
	d="
M304.179199,367.628448 
	C304.401886,367.080750 304.917236,366.542267 305.734528,366.012695 
	C305.514954,366.560333 304.993439,367.098999 304.179199,367.628448 
z"/>
<path fill="#727274" opacity="1.000000" stroke="none" 
	d="
M308.195923,364.676147 
	C308.413544,364.112579 308.928772,363.555725 309.754089,363.018829 
	C309.540649,363.586823 309.017090,364.134857 308.195923,364.676147 
z"/>
<path fill="#727274" opacity="1.000000" stroke="none" 
	d="
M302.767426,362.209106 
	C302.594788,362.791168 302.122803,363.393341 301.338135,364.003265 
	C301.506317,363.417084 301.987183,362.823181 302.767426,362.209106 
z"/>
<path fill="#727274" opacity="1.000000" stroke="none" 
	d="
M311.144043,362.481598 
	C311.373444,361.962250 311.887085,361.461182 312.687622,360.972748 
	C312.459106,361.490234 311.943695,361.995056 311.144043,362.481598 
z"/>
<path fill="#6D6D6F" opacity="1.000000" stroke="none" 
	d="
M238.476089,544.774658 
	C238.537308,545.377197 238.347748,546.145996 237.855331,547.020874 
	C237.776749,546.398315 238.001038,545.669556 238.476089,544.774658 
z"/>
<path fill="#727274" opacity="1.000000" stroke="none" 
	d="
M266.556030,399.586975 
	C266.832214,399.444366 266.995270,399.321167 267.158295,399.197937 
	C266.919800,399.334045 266.681305,399.470184 266.556030,399.586975 
z"/>
<path fill="#727274" opacity="1.000000" stroke="none" 
	d="
M324.181702,353.630432 
	C324.440186,353.081085 324.995667,352.562347 325.860901,352.076874 
	C325.606628,352.627075 325.042664,353.144073 324.181702,353.630432 
z"/>
<path fill="#727274" opacity="1.000000" stroke="none" 
	d="
M315.197113,359.674133 
	C315.432434,359.120270 315.966187,358.571991 316.812866,358.051147 
	C316.582367,358.612244 316.038971,359.145966 315.197113,359.674133 
z"/>
<path fill="#727274" opacity="1.000000" stroke="none" 
	d="
M318.170227,357.586182 
	C318.417755,357.043335 318.958984,356.528351 319.802002,356.038940 
	C319.557190,356.581024 319.010559,357.097565 318.170227,357.586182 
z"/>
<path fill="#626263" opacity="1.000000" stroke="none" 
	d="
M193.336700,246.013184 
	C193.377014,245.410812 193.698792,244.718613 194.325928,243.971725 
	C194.293579,244.585800 193.955872,245.254578 193.336700,246.013184 
z"/>
<path fill="#626263" opacity="1.000000" stroke="none" 
	d="
M319.232391,126.698471 
	C319.499359,126.156982 320.066864,125.613327 320.958313,125.115097 
	C320.699188,125.672447 320.116089,126.184380 319.232391,126.698471 
z"/>
<path fill="#626263" opacity="1.000000" stroke="none" 
	d="
M301.222687,138.676056 
	C301.461212,138.122253 301.997192,137.575867 302.847961,137.059570 
	C302.615204,137.620911 302.067688,138.152176 301.222687,138.676056 
z"/>
<path fill="#626263" opacity="1.000000" stroke="none" 
	d="
M298.256897,140.797455 
	C298.496002,140.226349 299.039215,139.641739 299.914246,139.097672 
	C299.684357,139.686798 299.122681,140.235382 298.256897,140.797455 
z"/>
<path fill="#626263" opacity="1.000000" stroke="none" 
	d="
M294.222534,143.683197 
	C294.454132,143.124741 294.982788,142.576782 295.825745,142.052612 
	C295.599884,142.615494 295.059723,143.154602 294.222534,143.683197 
z"/>
<path fill="#626263" opacity="1.000000" stroke="none" 
	d="
M291.277252,145.863800 
	C291.509125,145.281662 292.048218,144.675583 292.924225,144.107910 
	C292.702240,144.710831 292.143341,145.275345 291.277252,145.863800 
z"/>
<path fill="#626263" opacity="1.000000" stroke="none" 
	d="
M282.233948,152.724823 
	C282.446625,152.165649 282.956116,151.593155 283.780487,151.035706 
	C283.573853,151.604355 283.052338,152.157928 282.233948,152.724823 
z"/>
<path fill="#6F6F70" opacity="1.000000" stroke="none" 
	d="
M225.530548,176.845734 
	C225.551910,177.464890 225.291733,178.202194 224.730453,179.031921 
	C224.702576,178.404190 224.975784,177.684021 225.530548,176.845734 
z"/>
<path fill="#626263" opacity="1.000000" stroke="none" 
	d="
M212.316620,220.973022 
	C212.399246,220.379852 212.767593,219.700348 213.447723,218.980408 
	C213.373779,219.588867 212.988052,220.237793 212.316620,220.973022 
z"/>
<path fill="#626263" opacity="1.000000" stroke="none" 
	d="
M203.449677,232.169708 
	C203.521088,231.533371 203.889297,230.795700 204.595978,230.013763 
	C204.538452,230.669144 204.142471,231.368759 203.449677,232.169708 
z"/>
<path fill="#626263" opacity="1.000000" stroke="none" 
	d="
M201.325775,234.992004 
	C201.383972,234.401016 201.723099,233.717575 202.365875,232.978912 
	C202.315247,233.582306 201.960968,234.240936 201.325775,234.992004 
z"/>
<path fill="#727274" opacity="1.000000" stroke="none" 
	d="
M332.835083,338.418823 
	C332.607330,338.968353 332.088470,339.490814 331.270294,339.998108 
	C331.495300,339.452576 332.019653,338.922180 332.835083,338.418823 
z"/>
<path fill="#626263" opacity="1.000000" stroke="none" 
	d="
M188.429077,253.145950 
	C188.462967,252.520508 188.783859,251.789673 189.427170,250.999542 
	C189.405106,251.640350 189.060608,252.340454 188.429077,253.145950 
z"/>
<path fill="#626263" opacity="1.000000" stroke="none" 
	d="
M186.310043,256.009796 
	C186.369644,255.342056 186.739471,254.684799 187.406479,253.978912 
	C187.342514,254.626938 186.981384,255.323593 186.310043,256.009796 
z"/>
<path fill="#656566" opacity="1.000000" stroke="none" 
	d="
M269.506317,283.371460 
	C270.282288,283.106232 270.766510,283.142090 271.965088,283.324860 
	C271.579315,284.485382 270.603088,287.638428 269.506317,283.371460 
z"/>
<path fill="#727274" opacity="1.000000" stroke="none" 
	d="
M434.393768,290.864746 
	C433.870605,290.620544 433.421539,290.088074 432.987671,289.274658 
	C433.491180,289.521301 433.979523,290.048889 434.393768,290.864746 
z"/>
<path fill="#727274" opacity="1.000000" stroke="none" 
	d="
M434.188660,307.184937 
	C434.601196,306.757843 435.211151,306.467102 436.162354,306.302002 
	C435.797791,306.725494 435.091949,307.023376 434.188660,307.184937 
z"/>
<path fill="#727274" opacity="1.000000" stroke="none" 
	d="
M365.851776,317.522919 
	C365.578094,318.042572 365.014801,318.522400 364.152222,318.953857 
	C364.422729,318.431366 364.992432,317.957245 365.851776,317.522919 
z"/>
<path fill="#727274" opacity="1.000000" stroke="none" 
	d="
M355.817780,323.378174 
	C355.545959,323.924103 354.975677,324.435486 354.094879,324.902222 
	C354.362671,324.352936 354.940979,323.848267 355.817780,323.378174 
z"/>
<path fill="#727274" opacity="1.000000" stroke="none" 
	d="
M347.809998,328.341431 
	C347.547791,328.895294 346.986267,329.419098 346.111298,329.905151 
	C346.368805,329.348755 346.939758,328.830078 347.809998,328.341431 
z"/>
<path fill="#727274" opacity="1.000000" stroke="none" 
	d="
M341.783936,332.269714 
	C341.533478,332.829285 340.979523,333.381897 340.104706,333.896790 
	C340.349365,333.326996 340.914856,332.794891 341.783936,332.269714 
z"/>
<path fill="#727274" opacity="1.000000" stroke="none" 
	d="
M335.800781,336.329102 
	C335.567902,336.867859 335.039276,337.423981 334.197815,337.954407 
	C334.424988,337.401276 334.964996,336.873871 335.800781,336.329102 
z"/>
</svg>